<mxfile host="app.diagrams.net" modified="2022-07-07T23:37:01.878Z" agent="5.0 (Windows NT 10.0; Win64; x64) AppleWebKit/537.36 (KHTML, like Gecko) Chrome/103.0.0.0 Safari/537.36" etag="mtDD9CFjI_rJF377elH9" version="20.0.4" type="github">
  <diagram id="iiJIt-PCQE6-yp5zpXaV" name="Page-1">
    <mxGraphModel dx="1920" dy="685" grid="1" gridSize="10" guides="1" tooltips="1" connect="1" arrows="1" fold="1" page="1" pageScale="1" pageWidth="827" pageHeight="1169" math="0" shadow="0">
      <root>
        <mxCell id="0" />
        <mxCell id="1" parent="0" />
        <mxCell id="KI8BTofxpP5LOQUI96lR-18" value="Usuario" style="whiteSpace=wrap;html=1;" vertex="1" parent="1">
          <mxGeometry x="280" y="160" width="120" height="60" as="geometry" />
        </mxCell>
        <mxCell id="KI8BTofxpP5LOQUI96lR-19" value="Pedido" style="whiteSpace=wrap;html=1;" vertex="1" parent="1">
          <mxGeometry x="-160" y="160" width="120" height="60" as="geometry" />
        </mxCell>
        <mxCell id="KI8BTofxpP5LOQUI96lR-20" value="Email" style="ellipse;whiteSpace=wrap;html=1;" vertex="1" parent="1">
          <mxGeometry x="200" y="240" width="120" height="60" as="geometry" />
        </mxCell>
        <mxCell id="KI8BTofxpP5LOQUI96lR-21" value="Username" style="ellipse;whiteSpace=wrap;html=1;" vertex="1" parent="1">
          <mxGeometry x="360" y="240" width="120" height="60" as="geometry" />
        </mxCell>
        <mxCell id="KI8BTofxpP5LOQUI96lR-23" value="Nombre" style="ellipse;whiteSpace=wrap;html=1;" vertex="1" parent="1">
          <mxGeometry x="360" y="320" width="120" height="60" as="geometry" />
        </mxCell>
        <mxCell id="KI8BTofxpP5LOQUI96lR-27" value="Apellido" style="ellipse;whiteSpace=wrap;html=1;" vertex="1" parent="1">
          <mxGeometry x="360" y="400" width="120" height="60" as="geometry" />
        </mxCell>
        <mxCell id="KI8BTofxpP5LOQUI96lR-29" value="Contraseña" style="ellipse;whiteSpace=wrap;html=1;" vertex="1" parent="1">
          <mxGeometry x="200" y="320" width="120" height="60" as="geometry" />
        </mxCell>
        <mxCell id="KI8BTofxpP5LOQUI96lR-31" value="C.P (Código Postal)" style="ellipse;whiteSpace=wrap;html=1;" vertex="1" parent="1">
          <mxGeometry x="200" y="400" width="120" height="60" as="geometry" />
        </mxCell>
        <mxCell id="KI8BTofxpP5LOQUI96lR-45" value="Dirección" style="ellipse;whiteSpace=wrap;html=1;" vertex="1" parent="1">
          <mxGeometry x="200" y="480" width="120" height="60" as="geometry" />
        </mxCell>
        <mxCell id="KI8BTofxpP5LOQUI96lR-49" value="" style="edgeStyle=orthogonalEdgeStyle;rounded=0;orthogonalLoop=1;jettySize=auto;html=1;" edge="1" parent="1" source="KI8BTofxpP5LOQUI96lR-47">
          <mxGeometry relative="1" as="geometry">
            <mxPoint x="419.9999999999999" y="520" as="targetPoint" />
          </mxGeometry>
        </mxCell>
        <mxCell id="KI8BTofxpP5LOQUI96lR-50" value="Id de pedido" style="ellipse;whiteSpace=wrap;html=1;" vertex="1" parent="1">
          <mxGeometry x="-240" y="240" width="120" height="60" as="geometry" />
        </mxCell>
        <mxCell id="KI8BTofxpP5LOQUI96lR-52" value="Artículos" style="ellipse;whiteSpace=wrap;html=1;" vertex="1" parent="1">
          <mxGeometry x="-240" y="320" width="120" height="60" as="geometry" />
        </mxCell>
        <mxCell id="KI8BTofxpP5LOQUI96lR-54" value="Dirección" style="ellipse;whiteSpace=wrap;html=1;" vertex="1" parent="1">
          <mxGeometry x="-80" y="480" width="120" height="60" as="geometry" />
        </mxCell>
        <mxCell id="KI8BTofxpP5LOQUI96lR-56" value="Forma de pago" style="ellipse;whiteSpace=wrap;html=1;" vertex="1" parent="1">
          <mxGeometry x="-240" y="400" width="120" height="60" as="geometry" />
        </mxCell>
        <mxCell id="KI8BTofxpP5LOQUI96lR-58" value="PK" style="text;html=1;align=center;verticalAlign=middle;resizable=0;points=[];autosize=1;strokeColor=none;fillColor=none;" vertex="1" parent="1">
          <mxGeometry x="-280" y="255" width="40" height="30" as="geometry" />
        </mxCell>
        <mxCell id="KI8BTofxpP5LOQUI96lR-59" value="PK" style="text;html=1;align=center;verticalAlign=middle;resizable=0;points=[];autosize=1;strokeColor=none;fillColor=none;" vertex="1" parent="1">
          <mxGeometry x="160" y="255" width="40" height="30" as="geometry" />
        </mxCell>
        <mxCell id="KI8BTofxpP5LOQUI96lR-71" value="Producto" style="whiteSpace=wrap;html=1;" vertex="1" parent="1">
          <mxGeometry x="-597" y="160" width="120" height="60" as="geometry" />
        </mxCell>
        <mxCell id="KI8BTofxpP5LOQUI96lR-72" value="Departamento" style="ellipse;whiteSpace=wrap;html=1;" vertex="1" parent="1">
          <mxGeometry x="-510" y="320" width="120" height="60" as="geometry" />
        </mxCell>
        <mxCell id="KI8BTofxpP5LOQUI96lR-73" value="Sección" style="ellipse;whiteSpace=wrap;html=1;" vertex="1" parent="1">
          <mxGeometry x="-510" y="400" width="120" height="60" as="geometry" />
        </mxCell>
        <mxCell id="KI8BTofxpP5LOQUI96lR-74" value="Categoría" style="ellipse;whiteSpace=wrap;html=1;" vertex="1" parent="1">
          <mxGeometry x="-510" y="480" width="120" height="60" as="geometry" />
        </mxCell>
        <mxCell id="KI8BTofxpP5LOQUI96lR-75" value="Nombre" style="ellipse;whiteSpace=wrap;html=1;" vertex="1" parent="1">
          <mxGeometry x="-510" y="240" width="120" height="60" as="geometry" />
        </mxCell>
        <mxCell id="KI8BTofxpP5LOQUI96lR-76" value="Timestamp" style="ellipse;whiteSpace=wrap;html=1;" vertex="1" parent="1">
          <mxGeometry x="-676" y="320" width="120" height="60" as="geometry" />
        </mxCell>
        <mxCell id="KI8BTofxpP5LOQUI96lR-77" value="Stock" style="ellipse;whiteSpace=wrap;html=1;" vertex="1" parent="1">
          <mxGeometry x="-676" y="480" width="120" height="60" as="geometry" />
        </mxCell>
        <mxCell id="KI8BTofxpP5LOQUI96lR-79" value="Fotos" style="ellipse;whiteSpace=wrap;html=1;" vertex="1" parent="1">
          <mxGeometry x="-676" y="400" width="120" height="60" as="geometry" />
        </mxCell>
        <mxCell id="KI8BTofxpP5LOQUI96lR-81" value="Id de producto" style="ellipse;whiteSpace=wrap;html=1;" vertex="1" parent="1">
          <mxGeometry x="-676" y="240" width="120" height="60" as="geometry" />
        </mxCell>
        <mxCell id="KI8BTofxpP5LOQUI96lR-82" value="PK" style="text;html=1;align=center;verticalAlign=middle;resizable=0;points=[];autosize=1;strokeColor=none;fillColor=none;" vertex="1" parent="1">
          <mxGeometry x="-716" y="255" width="40" height="30" as="geometry" />
        </mxCell>
        <mxCell id="KI8BTofxpP5LOQUI96lR-83" value="Agregar productos al carrito" style="rhombus;whiteSpace=wrap;html=1;" vertex="1" parent="1">
          <mxGeometry x="-360" y="560" width="80" height="80" as="geometry" />
        </mxCell>
        <mxCell id="KI8BTofxpP5LOQUI96lR-84" value="Usar los datos del usuario para la entrega" style="rhombus;whiteSpace=wrap;html=1;" vertex="1" parent="1">
          <mxGeometry x="80" y="560" width="80" height="80" as="geometry" />
        </mxCell>
        <mxCell id="KI8BTofxpP5LOQUI96lR-85" value="Nombre" style="ellipse;whiteSpace=wrap;html=1;" vertex="1" parent="1">
          <mxGeometry x="-80" y="240" width="120" height="60" as="geometry" />
        </mxCell>
        <mxCell id="KI8BTofxpP5LOQUI96lR-86" value="Apellido" style="ellipse;whiteSpace=wrap;html=1;" vertex="1" parent="1">
          <mxGeometry x="-80" y="320" width="120" height="60" as="geometry" />
        </mxCell>
        <mxCell id="KI8BTofxpP5LOQUI96lR-87" value="C.P (Código Postal)" style="ellipse;whiteSpace=wrap;html=1;" vertex="1" parent="1">
          <mxGeometry x="-80" y="400" width="120" height="60" as="geometry" />
        </mxCell>
        <mxCell id="KI8BTofxpP5LOQUI96lR-88" value="Dia y hora de entrega" style="ellipse;whiteSpace=wrap;html=1;" vertex="1" parent="1">
          <mxGeometry x="-240" y="480" width="120" height="60" as="geometry" />
        </mxCell>
        <mxCell id="KI8BTofxpP5LOQUI96lR-89" value="Añadir productos al carrito de compras" style="rhombus;whiteSpace=wrap;html=1;" vertex="1" parent="1">
          <mxGeometry x="-360" y="80" width="80" height="80" as="geometry" />
        </mxCell>
        <mxCell id="KI8BTofxpP5LOQUI96lR-90" value="Datos personales para el carrito de compras" style="rhombus;whiteSpace=wrap;html=1;" vertex="1" parent="1">
          <mxGeometry x="80" y="80" width="80" height="80" as="geometry" />
        </mxCell>
        <mxCell id="KI8BTofxpP5LOQUI96lR-91" value="" style="endArrow=none;html=1;rounded=0;entryX=0;entryY=0.5;entryDx=0;entryDy=0;exitX=1;exitY=0;exitDx=0;exitDy=0;" edge="1" parent="1" source="KI8BTofxpP5LOQUI96lR-71" target="KI8BTofxpP5LOQUI96lR-89">
          <mxGeometry width="50" height="50" relative="1" as="geometry">
            <mxPoint x="-430" y="180" as="sourcePoint" />
            <mxPoint x="-380" y="130" as="targetPoint" />
          </mxGeometry>
        </mxCell>
        <mxCell id="KI8BTofxpP5LOQUI96lR-93" value="" style="endArrow=none;html=1;rounded=0;entryX=0;entryY=0;entryDx=0;entryDy=0;exitX=1;exitY=0.5;exitDx=0;exitDy=0;" edge="1" parent="1" source="KI8BTofxpP5LOQUI96lR-89" target="KI8BTofxpP5LOQUI96lR-19">
          <mxGeometry width="50" height="50" relative="1" as="geometry">
            <mxPoint x="-267" y="170" as="sourcePoint" />
            <mxPoint x="-150" y="130" as="targetPoint" />
          </mxGeometry>
        </mxCell>
        <mxCell id="KI8BTofxpP5LOQUI96lR-94" value="" style="endArrow=none;html=1;rounded=0;entryX=0;entryY=0.5;entryDx=0;entryDy=0;exitX=1;exitY=0;exitDx=0;exitDy=0;" edge="1" parent="1" source="KI8BTofxpP5LOQUI96lR-19" target="KI8BTofxpP5LOQUI96lR-90">
          <mxGeometry width="50" height="50" relative="1" as="geometry">
            <mxPoint x="-50" y="130" as="sourcePoint" />
            <mxPoint x="70" y="170.0000000000001" as="targetPoint" />
          </mxGeometry>
        </mxCell>
        <mxCell id="KI8BTofxpP5LOQUI96lR-95" value="" style="endArrow=none;html=1;rounded=0;entryX=1;entryY=0.5;entryDx=0;entryDy=0;exitX=0;exitY=0;exitDx=0;exitDy=0;" edge="1" parent="1" source="KI8BTofxpP5LOQUI96lR-18" target="KI8BTofxpP5LOQUI96lR-90">
          <mxGeometry width="50" height="50" relative="1" as="geometry">
            <mxPoint x="140" y="170" as="sourcePoint" />
            <mxPoint x="260" y="130" as="targetPoint" />
          </mxGeometry>
        </mxCell>
      </root>
    </mxGraphModel>
  </diagram>
</mxfile>
